Coordinates
version=1
nRows=26
nColumns=22
inDegrees=yes

Units are S.I. units (second, meters, Newtons, ...)
If the header above contains a line with 'inDegrees', this indicates whether rotational values are in degrees (yes) or radians (no).

endheader
time	pelvis_tilt	pelvis_list	pelvis_rotation	pelvis_tx	pelvis_ty	pelvis_tz	hip_flexion_r	hip_adduction_r	hip_rotation_r	knee_angle_r	ankle_angle_r	subtalar_angle_r	hip_flexion_l	hip_adduction_l	hip_rotation_l	knee_angle_l	ankle_angle_l	subtalar_angle_l	lumbar_extension	lumbar_bending	lumbar_rotation
      0.01000000	      2.14432903	     -0.93461990	     -0.83625906	      0.15845153	      1.08807214	      1.16730801	     -2.81144722	      1.71943279	     -4.15013299	    -11.43259989	     12.91156167	     -0.45249587	     -2.34758698	      0.29459556	      0.26180440	    -13.36375918	     12.75800587	     -3.46501370	     -2.08971127	     -1.58127469	     -5.32832783
      0.02000000	      2.17858678	     -0.92234253	     -0.81383980	      0.15839044	      1.08815684	      1.16721663	     -2.80227226	      1.70656171	     -4.13572266	    -11.51069829	     12.90369481	     -0.45713295	     -2.33418771	      0.31454407	      0.25750336	    -13.44343847	     12.74369856	     -3.46742676	     -2.11620382	     -1.60272624	     -5.30590408
      0.03000000	      2.20579365	     -0.86995535	     -0.80501022	      0.15833338	      1.08821592	      1.16710447	     -2.76181193	      1.64311045	     -4.16937982	    -11.63155379	     12.94620119	     -0.48297154	     -2.30603531	      0.37788342	      0.18849443	    -13.53306943	     12.72311301	     -3.47325069	     -2.12633174	     -1.66721811	     -5.27689874
      0.04000000	      2.21936951	     -0.82925513	     -0.78710460	      0.15824205	      1.08825293	      1.16697912	     -2.70791488	      1.59508656	     -4.18271235	    -11.74900518	     12.97983910	     -0.51546213	     -2.26397175	      0.43113234	      0.16060022	    -13.61854548	     12.70421027	     -3.47928030	     -2.12343493	     -1.71960394	     -5.24532216
      0.05000000	      2.22539956	     -0.80260461	     -0.76378624	      0.15814119	      1.08826718	      1.16684254	     -2.65087113	      1.56237799	     -4.20122483	    -11.85698909	     13.00600642	     -0.54844442	     -2.21458768	      0.46926183	      0.13847925	    -13.70208370	     12.69880555	     -3.49153173	     -2.11108381	     -1.75543019	     -5.21646303
      0.06000000	      2.23007019	     -0.79091255	     -0.73962673	      0.15803907	      1.08826365	      1.16671364	     -2.59927016	      1.54609356	     -4.22456515	    -11.95290371	     13.02586528	     -0.57398962	     -2.16933458	      0.49096541	      0.12387926	    -13.77678738	     12.70763770	     -3.51084041	     -2.09568808	     -1.77536589	     -5.19149486
      0.07000000	      2.24858645	     -0.79468286	     -0.71411878	      0.15794037	      1.08827021	      1.16657832	     -2.58382035	      1.54777864	     -4.22536467	    -12.00996964	     13.02760387	     -0.58063670	     -2.15145466	      0.49822781	      0.13814937	    -13.83098238	     12.71206227	     -3.52030235	     -2.09588096	     -1.77487528	     -5.16309502
      0.08000000	      2.24095772	     -0.81174774	     -0.67998761	      0.15783718	      1.08819881	      1.16643657	     -2.53164285	      1.56033053	     -4.28028430	    -12.08493666	     13.06193061	     -0.59768664	     -2.10679274	      0.48668617	      0.13312995	    -13.88079778	     12.76793128	     -3.56561734	     -2.06638868	     -1.76093606	     -5.14963039
      0.09000000	      2.25077865	     -0.83221793	     -0.65117530	      0.15772662	      1.08814578	      1.16628870	     -2.51949072	      1.57730077	     -4.29007458	    -12.11953118	     13.07086580	     -0.60138019	     -2.09096014	      0.47511682	      0.16944183	    -13.91592645	     12.78931062	     -3.58516178	     -2.05805309	     -1.74104323	     -5.11660929
      0.10000000	      2.24117455	     -0.88260807	     -0.59009975	      0.15763267	      1.08802954	      1.16610703	     -2.49784853	      1.62837553	     -4.34226286	    -12.13870148	     13.08401219	     -0.60459276	     -2.05397541	      0.42746175	      0.22134767	    -13.95010857	     12.87059600	     -3.66269308	     -2.02606217	     -1.68700160	     -5.12880112
      0.11000000	      2.25273994	     -0.92862182	     -0.54819555	      0.15755797	      1.08792635	      1.16594142	     -2.50119341	      1.67222544	     -4.36836789	    -12.15662835	     13.11352831	     -0.60480236	     -2.06380619	      0.38637230	      0.28223688	    -13.94477455	     12.94220258	     -3.70132665	     -2.01574164	     -1.63766782	     -5.11331818
      0.12000000	      2.27166991	     -0.98489496	     -0.49084822	      0.15748765	      1.08781807	      1.16574835	     -2.52721089	      1.72793377	     -4.39989045	    -12.14863953	     13.13707357	     -0.60261686	     -2.08062327	      0.33344829	      0.36414915	    -13.94234572	     13.02848554	     -3.74435834	     -2.01379346	     -1.57652634	     -5.10498281
      0.13000000	      2.30052242	     -1.04426544	     -0.42169206	      0.15743122	      1.08771447	      1.16553585	     -2.57567332	      1.78789092	     -4.43359464	    -12.12102631	     13.15422392	     -0.59828484	     -2.11089841	      0.27662008	      0.45939391	    -13.93472259	     13.11797860	     -3.79166668	     -2.02186356	     -1.51282720	     -5.10829987
      0.14000000	      2.33318093	     -1.10038120	     -0.35136395	      0.15737508	      1.08761871	      1.16531227	     -2.63438516	      1.84462378	     -4.46083747	    -12.08283952	     13.17503710	     -0.59422708	     -2.15237718	      0.22388005	      0.56171380	    -13.91330350	     13.20279203	     -3.83388142	     -2.03499430	     -1.45306123	     -5.11103651
      0.15000000	      2.37523333	     -1.15507716	     -0.27589765	      0.15733892	      1.08754493	      1.16509448	     -2.71236722	      1.90081107	     -4.49322357	    -12.02971914	     13.18596718	     -0.58926161	     -2.20592784	      0.17076235	      0.66811319	    -13.89053028	     13.27986063	     -3.87766961	     -2.05409069	     -1.39931434	     -5.12481850
      0.16000000	      2.41280109	     -1.20250769	     -0.20566333	      0.15727380	      1.08748358	      1.16487442	     -2.78636017	      1.94829795	     -4.52180792	    -11.96988728	     13.19606779	     -0.58443375	     -2.25946079	      0.12566957	      0.76843002	    -13.85467334	     13.34215372	     -3.91558655	     -2.07504457	     -1.35161860	     -5.13701958
      0.17000000	      2.46520081	     -1.24256108	     -0.13403317	      0.15721451	      1.08746971	      1.16466568	     -2.88392039	      1.98842647	     -4.57449282	    -11.89403078	     13.18496387	     -0.57522474	     -2.32660150	      0.08589069	      0.85165456	    -13.82266321	     13.37932282	     -3.96192466	     -2.11113203	     -1.31609248	     -5.15681236
      0.18000000	      2.47691655	     -1.27582896	     -0.09490493	      0.15712313	      1.08741849	      1.16452521	     -2.92075431	      2.02200342	     -4.58042873	    -11.84734234	     13.19907887	     -0.57106716	     -2.36370281	      0.05402933	      0.92779667	    -13.76603338	     13.41557864	     -3.97953619	     -2.10326824	     -1.29275956	     -5.15712500
      0.19000000	      2.49320771	     -1.30812714	     -0.05265070	      0.15704089	      1.08739923	      1.16438916	     -2.96720438	      2.05484000	     -4.61062225	    -11.78995233	     13.18934823	     -0.56435566	     -2.40667422	      0.02073572	      0.99608680	    -13.70897485	     13.43977705	     -3.99876635	     -2.10074612	     -1.27116496	     -5.17316701
      0.20000000	      2.50121921	     -1.33046103	     -0.02966659	      0.15694876	      1.08738778	      1.16429265	     -2.99592160	      2.07708062	     -4.63111208	    -11.74602242	     13.18567803	     -0.55780225	     -2.44927963	     -0.00215116	      1.04645804	    -13.63755287	     13.45045750	     -4.01106903	     -2.09224889	     -1.26297271	     -5.17965907
      0.21000000	      2.49366319	     -1.34322149	     -0.02707338	      0.15684971	      1.08736589	      1.16423633	     -2.99557290	      2.08796697	     -4.64425921	    -11.72272616	     13.19026757	     -0.55620539	     -2.47729208	     -0.01800598	      1.05369624	    -13.56253811	     13.45931408	     -4.01359092	     -2.06921271	     -1.26558077	     -5.18671712
      0.22000000	      2.49165445	     -1.35910148	     -0.02837006	      0.15674555	      1.08736785	      1.16420663	     -2.99487791	      2.10458236	     -4.63928703	    -11.71066036	     13.18571539	     -0.55257339	     -2.52642469	     -0.03522448	      1.10779095	    -13.46300315	     13.45522966	     -4.01634980	     -2.05790659	     -1.26850551	     -5.18126561
      0.23000000	      2.48219052	     -1.36865541	     -0.04297245	      0.15663876	      1.08735859	      1.16420305	     -2.97331779	      2.11286523	     -4.63809134	    -11.71972459	     13.18835992	     -0.55292538	     -2.56532499	     -0.04920291	      1.11056023	    -13.36737105	     13.45992281	     -4.01633024	     -2.04326309	     -1.27555925	     -5.19831241
      0.24000000	      2.47555519	     -1.37171522	     -0.07654429	      0.15652743	      1.08736170	      1.16424861	     -2.94312134	      2.11472112	     -4.60967651	    -11.74887135	     13.19970968	     -0.55528505	     -2.62479540	     -0.05354343	      1.14527240	    -13.24429144	     13.44036471	     -4.01322306	     -2.03823444	     -1.29569478	     -5.16732977
      0.25000000	      2.46984844	     -1.36653575	     -0.12336066	      0.15641271	      1.08736617	      1.16432388	     -2.90242451	      2.10653868	     -4.57244637	    -11.79819543	     13.21976139	     -0.56098913	     -2.68489699	     -0.05110785	      1.14713143	    -13.12171070	     13.42065934	     -4.00960281	     -2.04003729	     -1.32221673	     -5.14749179
      0.26000000	      2.46312821	     -1.35731643	     -0.17738890	      0.15629468	      1.08736918	      1.16442257	     -2.85156309	      2.09395183	     -4.52556841	    -11.86328528	     13.24679335	     -0.56866961	     -2.74347977	     -0.04511923	      1.14062430	    -13.00098546	     13.39905760	     -4.00420414	     -2.04730871	     -1.35270275	     -5.12706934
